<svg width="1297" height="206" viewBox="0 0 1297 206" fill="none" xmlns="http://www.w3.org/2000/svg">
<g clip-path="url(#clip0_12_2)">
<path d="M448.904 79.3628C431.961 79.3628 425.708 84.4589 424.698 97.3966H404.124C405.132 78.1869 417.84 63.0942 448.904 63.0942C471.697 63.0942 488.642 71.5224 488.642 98.1807V145.813C488.642 152.869 490.256 156.594 498.527 155.809V165.61C493.683 167.374 490.256 167.766 486.222 167.766C474.925 167.766 469.681 163.846 467.664 154.045H467.261C460.804 162.865 449.107 168.942 433.171 168.942C412.192 168.942 399.283 157.181 399.283 140.324C399.283 118.37 416.025 111.51 441.845 106.609C457.78 103.669 467.462 101.709 467.462 92.1042C467.462 84.8519 463.025 79.3628 448.904 79.3628ZM467.462 127.975V112.882C464.032 115.234 455.761 117.586 445.878 119.546C428.33 123.271 420.664 128.171 420.664 138.364C420.664 147.577 426.312 152.672 437.811 152.672C455.359 152.672 467.462 144.244 467.462 127.975Z" fill="#2F196E"/>
<path d="M783.336 37.4092H835.578C875.32 37.4092 899.723 60.5817 899.723 102.208C899.723 143.835 875.32 166.825 835.578 166.825H783.336V37.4092ZM801.495 152.348H835.578C872.29 152.348 881.568 127.55 881.568 102.208C881.568 76.8661 872.29 51.8865 835.578 51.8865H801.495V152.348Z" fill="#2F196E"/>
<path d="M548.053 172.809C542.185 188.326 535.51 200.7 515.683 200.7C509.615 200.7 504.558 199.717 500.51 198.735V183.023H502.332C511.232 184.201 517.909 183.612 522.563 178.113C526.407 173.595 529.238 165.739 525.394 156.312C525.394 156.312 488.823 69.344 487.969 66.1625C487.116 62.981 500.228 63.0039 508.757 69.344C511.79 71.5987 512.674 72.879 514.639 76.2809C516.605 79.6829 531.382 120.731 539.758 142.964H540.164C540.164 142.964 561.216 79.6818 563.167 76.3043C565.119 72.9268 566.592 71.6221 570.05 69.3908C578.214 64.1196 590.187 62.9486 589.323 66.1697C588.461 69.3908 585.598 75.7861 583.741 80.5942L548.053 172.818V172.809Z" fill="#2F196E"/>
<path d="M661.277 135.423H682.698C677.389 154.437 661.89 168.942 635.175 168.942C602.755 168.942 582.973 147.381 582.973 116.018C582.973 84.6556 602.755 63.0942 634.16 63.0942C667.808 63.0942 684.327 85.6353 684.327 121.31H604.384C604.384 138.167 615.6 152.084 634.567 152.084C652.309 152.084 659.448 141.5 661.277 135.423ZM604.384 106.022H662.911C662.911 90.536 651.488 79.3628 634.16 79.3628C616.827 79.3628 604.384 90.536 604.384 106.022Z" fill="#2F196E"/>
<path d="M749.812 63.6966V83.331H749.405C728.742 79.959 712.177 93.4456 712.177 115.063V166.825H690.688C690.688 166.825 690.688 78.5527 690.688 75.7627C690.689 72.9727 692.796 71.1061 695.825 68.6865C702.506 63.3394 712.177 63.0138 712.177 65.4738C712.177 67.9338 712.177 84.513 712.177 84.513H712.579C718.106 71.82 726.7 63.0942 740.403 63.0942C744.084 63.0942 746.745 63.292 749.812 63.6882V63.6966Z" fill="#2F196E"/>
<path d="M1044.33 46.6447C1044.33 40.453 1049.65 37.0576 1053.84 37.0576C1058.01 37.0576 1063.33 40.453 1063.33 46.6447C1063.33 52.8363 1058.21 56.2311 1053.84 56.2311C1049.46 56.2311 1044.33 52.8363 1044.33 46.6447ZM1061.43 66.4176C1061.43 66.4176 1061.43 166.702 1061.43 168.281C1061.43 169.861 1055.74 168.544 1051.5 165.053C1047.39 161.65 1046.23 159.52 1046.23 155.898C1046.23 152.276 1046.23 66.4176 1046.23 66.4176H1061.43Z" fill="#2F196E"/>
<path d="M909.221 46.6447C909.221 40.453 914.542 37.0576 918.725 37.0576C922.902 37.0576 928.223 40.453 928.223 46.6447C928.223 52.8363 923.098 56.2311 918.725 56.2311C914.353 56.2311 909.221 52.8363 909.221 46.6447ZM926.32 66.4176C926.32 66.4176 926.32 166.702 926.32 168.281C926.32 169.86 920.626 168.544 916.393 165.053C912.278 161.65 911.123 159.52 911.123 155.898C911.123 152.276 911.123 66.4176 911.123 66.4176H926.32Z" fill="#2F196E"/>
<path d="M1034.85 65.885V161.954C1034.85 189.061 1017.15 202.812 988.337 202.812C959.531 202.812 942.448 188.065 940.802 170.725H957.267C959.324 181.088 967.964 188.862 987.517 188.862C1007.07 188.862 1018.39 180.689 1018.39 161.754V146.407H1017.97C1011.8 155.178 1001.92 162.353 984.634 162.353C958.706 162.353 937.713 146.208 937.713 112.724C937.713 79.239 958.706 63.0942 984.634 63.0942C1001.92 63.0942 1011.8 70.6681 1017.97 78.441H1018.39V65.885H1034.85ZM1018.39 112.724C1018.39 88.8058 1006.24 77.0462 986.692 77.0462C965.092 77.0462 954.182 92.7919 954.182 112.724C954.182 132.655 965.092 148.401 986.692 148.401C1006.24 148.401 1018.39 136.642 1018.39 112.724Z" fill="#2F196E"/>
<path d="M1103.63 83.6163V142.351C1103.63 153.452 1109.99 155.362 1123.5 154.402V167.794C1119.92 168.563 1115.75 168.944 1111.57 168.944C1098.06 168.944 1087.73 163.774 1087.73 143.882V83.6163H1072.82V70.225H1087.73C1087.73 70.225 1087.73 39.2793 1087.73 37.6938C1087.73 36.1082 1092.1 37.8998 1094.84 39.2793C1102.19 42.9899 1103.63 50.0289 1103.63 52.6234C1103.63 55.218 1103.63 70.2171 1103.63 70.2171H1123.5V83.6084H1103.63V83.6163Z" fill="#2F196E"/>
<path d="M1176.5 76.8661C1156.91 76.8661 1150.45 82.3748 1149.44 96.9342H1133.29C1134.3 77.653 1146.62 63.0942 1176.5 63.0942C1196.08 63.0942 1213.66 70.5701 1213.66 94.7702V143.563C1213.66 151.432 1215.07 155.761 1225.36 154.58V165.598C1221.13 166.975 1218.91 167.172 1215.88 167.172C1206.19 167.172 1200.33 164.615 1197.5 153.597H1197.1C1190.64 163.04 1179.12 168.942 1162.16 168.942C1141.37 168.942 1128.24 157.335 1128.24 140.415C1128.24 117.592 1145.61 111.69 1172.26 106.771C1189.63 103.623 1197.5 101.46 1197.5 91.4248C1197.5 83.5556 1193.06 76.8661 1176.5 76.8661ZM1197.5 127.429V110.706C1194.47 113.657 1184.58 116.412 1173.68 118.576C1153.68 122.708 1144.4 127.626 1144.4 139.628C1144.4 149.465 1150.45 155.17 1163.78 155.17C1182.97 155.17 1197.5 146.71 1197.5 127.429Z" fill="#2F196E"/>
<path d="M1278.79 37.8064H1282.57L1287.64 50.8098H1287.84L1292.9 37.8064H1296.69V55.7517H1293.72V43.423H1293.56L1288.84 55.6993H1286.63L1281.91 43.3967H1281.76V55.7517H1278.79V37.8064Z" fill="#2F196E"/>
<path d="M1262.88 40.5315V37.8064H1276.8V40.5315H1271.4V55.7517H1268.27V40.5315H1262.88Z" fill="#2F196E"/>
<path d="M276.787 37.6931H332.956C372.758 37.6931 397.206 60.8151 397.206 102.35C397.206 143.887 373.566 166.827 333.561 166.827C333.561 166.827 293.435 166.827 276.787 166.827V37.6931ZM276.787 137.014C276.787 134.162 276.787 166.827 276.787 166.827C280.238 153.467 300.83 148.595 316.287 148.595C331.744 148.595 331.744 148.595 331.744 148.595C364.071 148.595 373.163 127.102 373.163 102.359C373.163 77.6151 364.071 55.9422 331.744 55.9422H300.83V102.269C300.83 102.269 300.83 120.242 300.83 125.432C300.83 130.622 276.787 139.864 276.787 137.014Z" fill="#2F196E"/>
<path fill-rule="evenodd" clip-rule="evenodd" d="M1246 37.8064V166.166C1246 167.743 1239.67 166.429 1234.97 162.943C1230.39 159.546 1229.11 157.421 1229.11 153.804L1229.22 37.8064H1246Z" fill="#2F196E"/>
<path d="M77.8977 41.8815H127.778C135.248 41.8815 142.718 42.848 149.466 44.7805C135.971 18.6893 108.742 0.570312 77.1747 0.570312H27.2942C12.3543 0.570312 0.305908 12.6496 0.305908 27.628V137.308C0.305908 152.286 12.3543 164.366 27.2942 164.366H51.1502V68.9394C50.9093 53.9609 62.9576 41.8815 77.8977 41.8815Z" fill="#4508F4"/>
<path d="M149.721 44.7773C155.504 56.1316 158.877 68.6941 158.877 82.2231C158.877 127.4 122.251 164.121 77.4302 164.121H50.9238V178.375C50.9238 193.353 62.972 205.432 77.9121 205.432H127.793C172.853 205.432 209.24 168.711 209.24 123.534C209.24 86.0884 183.939 54.4407 149.721 44.7773Z" fill="#4508F4"/>
</g>
<defs>
<clipPath id="clip0_12_2">
<rect width="1297" height="206" fill="white"/>
</clipPath>
</defs>
</svg>
