<svg class="kp-logo-type" width="256" height="28" viewBox="0 0 256 28" fill="none" xmlns="http://www.w3.org/2000/svg">
  <path d="M47.6191 2.06033H51.6809V2.11316C50.6387 2.79995 50.0241 3.9358 50.0241 5.1509V26.3358H49.9707L32.5477 5.38863V22.849C32.5477 24.0641 33.1623 25.2 34.2045 25.8603H34.2312V25.9132H30.1694V25.8603C31.2116 25.1735 31.8262 24.0377 31.8262 22.8226V1.74335H31.8529L49.2759 22.6905V5.1509C49.2759 3.9358 48.6613 2.79995 47.6191 2.13958V2.06033ZM71.108 15.1358C72.2571 16.1132 72.6312 17.1962 72.6312 20.5509V22.8226C71.2951 24.249 69.5849 25.2264 67.554 25.5962C61.782 26.6264 56.2237 22.2679 55.1014 15.8754C53.979 9.48297 57.7736 3.43392 63.5189 2.40373C67.6876 1.66411 71.4554 3.72448 73.6467 7.34335V4.43769C71.4554 2.61505 68.6229 1.50562 65.5231 1.50562C58.5485 1.50562 52.8834 7.10561 52.8834 14C52.8834 20.8943 58.5485 26.4943 65.5231 26.4943C68.9168 26.4943 71.9899 25.1735 74.2613 23.0075V22.9018V19.6528C74.2613 17.1169 74.5018 16.1924 75.5707 15.1094V15.0566H71.0813V15.1358H71.108ZM23.3552 2.13958C24.1836 2.82637 24.6646 3.83014 24.6646 4.91316V23.1132C24.6646 24.1962 24.1836 25.2 23.3552 25.8867V25.9396H27.7644V25.8867C26.936 25.2 26.455 24.1962 26.455 23.1132V4.91316C26.455 3.83014 26.936 2.82637 27.7644 2.13958V2.06033H23.3552V2.13958ZM16.3005 22.1094L8.20367 12.3358L14.617 5.62637C15.8463 4.33203 16.7281 3.27543 19.1064 2.13958V2.06033H13.7085V2.11316C14.6705 3.01128 15.098 4.12071 13.655 5.65278L7.45544 12.0981H5.77193L6.54688 13.049L4.94354 14.7132V4.88675C4.94354 3.83014 5.42454 2.79995 6.25294 2.11316V2.06033H1.84375V2.11316C2.67214 2.79995 3.15314 3.80373 3.15314 4.88675V23.1132C3.15314 24.1698 2.67214 25.2 1.84375 25.8867V25.9396H6.25294V25.8867C5.42454 25.2 4.94354 24.1962 4.94354 23.1132V15.7698L7.00116 13.6037L17.2091 25.9396H20.8433L20.8166 25.8867C19.3469 25.2 18.3849 24.5924 16.3005 22.1094ZM100.93 22.849L101.01 22.8754C100.797 24.7509 99.1665 26.4943 96.8951 26.4943C95.078 26.4943 93.7686 25.5433 92.5394 24.0905L91.6308 23.0075C90.3214 24.5924 88.2638 26.4943 84.5494 26.4943C80.354 26.4943 77.655 23.166 77.6817 19.6264C77.7085 16.5622 79.4721 14.2905 83.1064 12.7056C77.6283 6.04901 81.8237 1.50562 85.8053 1.50562C88.6646 1.50562 90.5886 3.64524 90.5619 6.26033C90.5619 9.0075 88.3172 11.1471 84.9502 12.415L92.4325 21.1584C94.303 18.2264 95.3987 14.9245 95.3987 13.4452C95.3987 11.9396 93.6884 11.4905 93.6884 11.4905V11.3584H98.8191V11.4905C98.8191 11.4905 97.1356 11.8867 96.4675 13.5509C95.746 15.4 94.2763 19.2301 92.7531 21.5018L93.9289 22.8754C95.078 24.249 96.2003 25.1207 97.7235 25.1207C99.0062 25.1471 100.289 24.4603 100.93 22.849ZM84.683 12.0717C87.3018 10.9622 89.0922 8.90184 89.1189 6.28675C89.1189 3.88297 87.8362 2.03392 85.8053 2.03392C84.0684 2.03392 82.1444 3.48675 82.1444 6.12826C82.1176 8.08297 82.7857 9.85278 84.683 12.0717ZM91.3101 22.6377L83.3736 13.049C80.835 14.2377 79.3118 15.849 79.2851 19.0188C79.3652 22.3735 82.1176 25.3584 85.8588 25.3584C87.8897 25.3584 89.6534 24.5132 91.3101 22.6377ZM158.089 2.06033L156.807 7.73958L157.074 7.84524L159.612 3.53958C159.88 3.06411 160.414 2.77354 160.975 2.77354H165.892V21.9245C165.892 23.7471 165.705 24.5396 164.583 25.9132V25.966H168.992V25.9132C167.923 24.5132 167.683 23.8 167.683 21.9245V2.74712H172.599C173.161 2.74712 173.668 3.03769 173.962 3.51316L176.501 7.81882L176.768 7.71316L175.485 2.03392H158.089V2.06033ZM117.979 8.95467C117.979 13.1018 114.452 15.8226 109.642 15.8226H105.901V23.0867C105.901 24.1698 106.382 25.1735 107.21 25.8603V25.9132H102.801V25.8603C103.629 25.1735 104.11 24.1698 104.11 23.0867V4.91316C104.11 3.83014 103.629 2.82637 102.801 2.13958V2.06033H109.855C114.665 2.06033 117.979 4.56977 117.979 8.95467ZM116.215 8.95467C116.215 4.59618 112.929 2.72071 110.123 2.72071C109.428 2.72071 108.118 2.72071 105.927 2.72071V2.74712V15.1622H109.508C113.383 15.1622 116.215 13.3132 116.215 8.95467ZM136.925 25.8603V25.9132H132.81V25.8603C133.237 25.332 133.558 24.3283 132.863 22.4264L130.779 16.932H121.774L119.716 22.3735C118.968 24.3283 119.582 25.2528 120.331 25.8867V25.9396H116.643V25.8867C117.899 24.8037 118.086 24.249 118.888 22.215L126.771 1.74335H126.797L134.787 22.4792C135.642 24.8037 135.856 25.1207 136.925 25.8603ZM130.539 16.2717L126.29 4.99241L122.014 16.2717H130.539ZM248.518 12.5471L248.357 12.4415C245.418 10.4075 243.467 9.06033 243.467 6.12826C243.467 3.77731 245.284 2.24524 247.903 2.24524C250.014 2.24524 251.617 4.06788 252.312 5.38863H252.392V2.74712C251.617 2.3509 250.148 1.58486 248.063 1.58486C244.189 1.58486 241.703 3.80373 241.703 7.02637C241.703 10.0905 243.948 12.1509 247.315 14.2905C250.682 16.483 252.259 18.0679 252.259 21C252.259 23.6943 250.121 25.7547 247.262 25.7547C243.841 25.7547 242.078 22.9283 241.196 20.7622H241.116L241.409 24.4603C242.639 25.1735 244.483 26.3358 247.262 26.3358C251.377 26.3358 254.156 23.6415 254.156 19.8641C254.156 16.5622 251.671 14.7924 248.518 12.5471ZM157.822 25.7283V25.7811C156.967 26.2037 155.497 26.0981 154.508 25.5698C153.146 24.8566 152.157 23.6679 150.767 21.5547C149.565 19.732 147.427 15.7698 146.572 14.6867C146.412 14.6867 146.278 14.6867 146.118 14.6867H142.083V23.0867C142.083 24.1698 142.564 25.1735 143.392 25.8603V25.9132H138.983V25.8603C139.811 25.1735 140.292 24.1698 140.292 23.0867V4.91316C140.292 3.83014 139.811 2.82637 138.983 2.13958V2.06033H146.331C150.741 2.06033 153.76 4.35845 153.76 8.37354C153.76 11.3849 151.703 13.6037 148.656 14.3698C149.298 15.3735 151.248 18.8075 152.21 20.4452C154.081 23.6679 155.898 25.7283 157.822 25.7283ZM151.916 8.37354C151.916 4.41128 148.923 2.72071 146.385 2.72071C145.53 2.72071 143.445 2.72071 142.109 2.72071V14.0528H145.824C149.324 14.0528 151.916 12.3622 151.916 8.37354ZM240.474 25.7283V25.7811C239.619 26.2037 238.149 26.0981 237.161 25.5698C235.798 24.8566 234.809 23.6679 233.42 21.5547C232.217 19.732 230.079 15.7698 229.224 14.6867C229.064 14.6867 224.735 14.6867 224.735 14.6867V23.0867C224.735 24.1698 225.216 25.1735 226.044 25.8603V25.9132H221.635V25.8603C222.463 25.1735 222.944 24.1698 222.944 23.0867V4.91316C222.944 3.83014 222.463 2.82637 221.635 2.13958V2.06033H228.984C233.393 2.06033 236.412 4.35845 236.412 8.37354C236.412 11.3849 234.355 13.6037 231.308 14.3698C231.95 15.3735 233.901 18.8075 234.863 20.4452C236.706 23.6679 238.523 25.7283 240.474 25.7283ZM234.542 8.37354C234.542 4.41128 231.549 2.72071 229.01 2.72071C228.155 2.72071 226.071 2.72071 224.735 2.72071V14.0528H228.449C231.95 14.0528 234.542 12.3622 234.542 8.37354ZM216.905 23.6943C216.29 24.5924 215.275 25.1471 214.153 25.1471H205.281V14.2641H210.492C210.919 14.2641 211.32 14.4754 211.561 14.8452L212.923 16.8792H213.191V10.9886H212.923L211.561 13.0226C211.32 13.366 210.919 13.6037 210.492 13.6037H205.281V2.74712H212.202C213.458 2.74712 214.634 3.35467 215.355 4.38486C215.863 5.12448 216.504 5.99618 217.146 6.89429L217.413 6.78863L216.13 2.06033H202.181V2.11316C203.063 3.46033 203.464 4.33203 203.464 5.78486V22.1622C203.464 23.5886 203.063 24.5132 202.181 25.8339V25.8867H217.787L219.283 20.6037L219.016 20.4981C218.161 21.8188 217.44 22.9018 216.905 23.6943ZM195.688 2.13958C196.73 2.82637 197.344 3.9358 197.344 5.1509V22.6905L179.921 1.74335H179.895V22.8226C179.895 24.0377 179.28 25.1735 178.238 25.8603V25.9132H182.3V25.8603H182.273C181.257 25.2 180.643 24.0641 180.616 22.849V5.38863L198.039 26.3358H198.066V5.17731C198.066 3.96222 198.68 2.82637 199.723 2.13958V2.06033H195.661V2.13958H195.688Z" fill="#0D1424"/>
</svg>