<svg width="161" height="45" viewBox="0 0 161 45" fill="none" xmlns="http://www.w3.org/2000/svg">
<path d="M32.7054 29.9285C31.5994 22.6234 30.3601 15.9414 30.3386 15.876C29.6522 11.6472 27.5866 10.9696 26.7302 10.865C25.2542 10.7038 23.8513 11.7365 23.1563 13.5165C23.0058 13.9713 22.933 14.4487 22.9411 14.9283L18.5926 4.68847C17.9471 3.1634 17.0455 2.50979 16.4043 2.22003C15.5693 1.84853 14.6186 1.84853 13.7836 2.22003C13.3636 2.4028 12.9812 2.66366 12.6561 2.9891C11.5286 1.13504 9.46733 0.64048 7.96116 1.29844C7.11452 1.66036 6.46937 2.383 6.19894 3.27233C5.94924 4.1782 5.99374 5.14135 6.32588 6.01965C5.70304 5.93211 5.06841 6.01564 4.48836 6.26148C3.64219 6.62294 2.99712 7.34468 2.72614 8.23319C2.43136 9.17439 2.53679 10.2855 3.02952 11.4468L3.73742 13.1113C3.12598 13.0324 2.5048 13.118 1.93647 13.3596C1.08584 13.718 0.436308 14.4403 0.163492 15.3313C-0.131287 16.2725 -0.0258548 17.3837 0.466878 18.5427L9.26722 39.2751C10.584 42.3754 13.0929 44.1597 16.5227 44.432C19.7738 44.6913 22.8271 43.5431 23.9911 43.0377L24.2967 42.9026C27.8297 41.3753 33.7404 38.8154 32.7054 29.9285ZM29.6931 36.6563C29.5527 36.2742 29.3457 35.9208 29.082 35.6127C28.7295 35.2185 28.2859 34.919 27.791 34.7412C27.1154 34.4776 26.4268 34.2467 25.7426 34.0048C24.6283 33.605 23.5582 33.0887 22.5495 32.4645C22.0871 32.1485 21.5292 32.0081 20.9745 32.068C20.5875 32.1323 20.2138 32.2611 19.8685 32.4493C19.2207 32.77 18.7436 33.3613 18.5625 34.068C18.4699 34.4014 18.3989 34.7412 18.3193 35.0789C18.0265 36.1886 17.6115 37.2614 17.0821 38.2772C16.7874 38.8347 16.5592 39.4256 16.4022 40.0376C16.2601 40.6029 16.2947 41.199 16.5011 41.7435C16.6015 42.0042 16.7276 42.2538 16.8777 42.4886C14.584 42.3579 12.2688 41.3993 11.038 38.4973L2.23771 17.7737C1.93647 17.0481 1.84825 16.4076 2.00102 15.9196C2.10428 15.5732 2.35534 15.2918 2.68525 15.1527C3.41252 14.8346 4.42381 15.1309 5.01552 16.1244L8.46895 24.2574C8.60168 24.5829 8.89723 24.8107 9.24237 24.8536C9.58752 24.8966 9.92875 24.748 10.1353 24.4647C10.3419 24.1815 10.3818 23.8075 10.2398 23.4862L7.03163 15.9348C7.0203 15.86 7.00007 15.7869 6.97139 15.717C6.89823 15.5492 6.82077 15.3924 6.73685 15.2398L4.80035 10.6799C4.49266 9.95435 4.4109 9.30075 4.56366 8.82144C4.66692 8.47502 4.91798 8.19363 5.2479 8.05454C5.98162 7.73645 7.00151 8.03929 7.59322 9.0502L13.1876 22.2073C13.3155 22.5393 13.6121 22.7743 13.9611 22.8203C14.3102 22.8663 14.6562 22.716 14.8639 22.4282C15.0715 22.1404 15.1078 21.7609 14.9584 21.4382L9.59428 8.8258C9.58209 8.75117 9.56188 8.67811 9.53403 8.60793C9.46518 8.4467 9.38987 8.29638 9.31886 8.1504L8.27315 5.71246C7.96116 4.98913 7.8837 4.34642 8.03647 3.85404C8.14164 3.50973 8.39227 3.23042 8.7207 3.0915C9.52973 2.74073 10.6916 3.14161 11.236 4.42485L11.9159 6.03272C11.9204 6.04915 11.9261 6.06518 11.9331 6.08065L17.8589 20.0177C17.9868 20.3497 18.2834 20.5847 18.6324 20.6307C18.9815 20.6767 19.3275 20.5264 19.5352 20.2386C19.7428 19.9509 19.7791 19.5713 19.6297 19.2486L14.0353 6.04362C14.0353 6.04362 14.0353 6.02401 14.0246 6.01529L13.6932 5.27018C13.5598 4.87584 13.9665 4.28106 14.5539 4.02398C15.449 3.63617 16.2752 4.15905 16.8325 5.46191L24.3139 23.0722C24.5134 23.5406 25.0354 23.7745 25.5119 23.6089C25.9885 23.4433 26.2587 22.9341 26.132 22.4404C25.2972 19.1942 24.613 15.1374 24.9615 14.2464C25.3101 13.3553 25.9556 12.7518 26.5366 12.815C27.1821 12.8869 28.0685 13.8193 28.4558 16.2137C28.4709 16.303 29.7038 22.9546 30.8012 30.19C31.1282 33.0593 30.6269 35.1203 29.6931 36.6563Z" fill="white"/>
<path d="M17.5297 26.9786C17.1871 26.5829 16.7193 26.3202 16.2064 26.2357C15.9915 26.2206 15.7758 26.2206 15.5609 26.2357L15.165 26.4078C15.1552 26.4242 15.1428 26.4389 15.1284 26.4513C14.646 26.8135 14.3542 27.3795 14.3366 27.9873C14.277 28.745 14.4636 29.5017 14.868 30.142C15.2171 30.7832 15.7977 31.2626 16.4882 31.4798C17.0664 31.644 17.6862 31.4516 18.074 30.9874C18.4287 30.5248 18.5964 29.943 18.5431 29.3599C18.5058 28.467 18.145 27.6193 17.5297 26.9786Z" fill="white"/>
<path d="M16.1938 33.3924C15.7892 32.595 15.2234 31.9719 14.3498 31.7061C13.7966 31.5052 13.1788 31.6356 12.7511 32.0438C12.3983 32.3883 12.1876 32.8554 12.1615 33.351C12.1053 33.9842 12.2309 34.6204 12.523 35.1832C12.852 35.9037 13.4286 36.4783 14.1454 36.7998C14.58 37.0123 15.0849 37.0206 15.5262 36.8226C15.9674 36.6246 16.3004 36.2403 16.4369 35.7715C16.6561 35.0508 16.5993 34.273 16.2777 33.5928C16.2497 33.5253 16.226 33.4555 16.1938 33.3924Z" fill="white"/>
<path d="M21.2327 24.4429C20.9186 24.3313 20.5717 24.369 20.2881 24.5453C19.8641 24.7975 19.5429 25.1945 19.3822 25.6651C19.0896 26.4515 19.0896 27.3188 19.3822 28.1052C19.5615 28.6232 19.869 29.086 20.2752 29.4495C20.6093 29.7609 21.0522 29.9247 21.5059 29.9048C22.2181 29.8569 22.6764 29.4342 22.9841 28.8155C23.2437 28.2745 23.3488 27.6708 23.2875 27.0725C23.203 25.851 22.3873 24.807 21.2327 24.4429Z" fill="white"/>
<path d="M25.592 27.9158C25.3722 27.9031 25.1534 27.9546 24.9615 28.064C24.5207 28.3341 24.2094 28.7762 24.1009 29.2862C23.9309 30.0052 24.0793 30.6849 24.4021 31.5085C24.5097 31.6719 24.6883 31.9878 24.9056 32.271C25.1278 32.5612 25.426 32.7824 25.7663 32.9094C26.191 33.0695 26.6584 33.0695 27.0831 32.9094C27.9437 32.6044 28.4903 31.9268 28.4731 30.9878C28.45 30.3267 28.2369 29.6869 27.8598 29.1468C27.374 28.3571 26.5104 27.8883 25.592 27.9158Z" fill="white"/>
<path d="M47.109 16.5389H41.9616C41.232 16.5389 40.6406 17.1141 40.6406 17.8237V35.3817C40.6406 36.0861 40.9995 36.4523 41.6842 36.4523H41.9616C42.2551 36.4644 42.54 36.3547 42.7454 36.1505C42.9508 35.9462 43.0572 35.6667 43.0382 35.3817V28.7439H46.8625C51.946 28.7439 54.6342 26.6198 54.6342 22.6007C54.6342 18.7444 51.891 16.5389 47.109 16.5389ZM52.1728 22.6521C52.1728 25.2987 50.4489 26.6412 47.0474 26.6412H43.0382V18.6609H47.1399C50.4798 18.6609 52.1728 20.0034 52.1728 22.6521Z" fill="white"/>
<path d="M63.4496 21.3335C61.4042 21.3081 59.4388 22.1054 58.0182 23.5368C56.629 24.9564 55.8628 26.9242 55.8628 29.074C55.8628 33.5598 59.0596 36.6946 63.6346 36.6946C67.8441 36.6946 70.0193 34.3542 70.0193 33.3564C70.0193 32.4614 69.1189 32.0717 68.76 32.0717C68.6879 32.0651 68.6176 32.096 68.5751 32.153C67.7825 33.3907 66.5804 34.6518 63.6412 34.6518C60.6249 34.6518 58.4013 32.6177 58.1833 29.6864H69.5019C70.1382 29.6864 70.4839 29.5579 70.4839 28.8834V28.7014C70.4839 26.5216 69.8234 24.6695 68.5618 23.3484C67.3003 22.0272 65.5302 21.3335 63.4496 21.3335ZM58.256 27.7272C58.7425 25.0935 60.8121 23.3355 63.4496 23.3355C66.0872 23.3355 67.8023 25.0142 68.0379 27.7272H58.256Z" fill="white"/>
<path d="M80.5015 33.6604C80.4517 33.6584 80.4031 33.6762 80.3672 33.7097C79.8442 34.3611 79.0348 34.7328 78.1853 34.7118C76.7058 34.7118 76.129 33.881 76.129 31.7462V23.7166H79.9224C80.6864 23.7166 81.0232 23.4318 81.0232 22.7916V22.6096C81.0232 21.9673 80.682 21.6846 79.9224 21.6846H76.1202V19.3293C76.1202 18.6055 75.7899 18.2587 75.1074 18.2587H74.8873C74.196 18.2587 73.8437 18.6205 73.8437 19.3293V21.6846H72.635C71.871 21.6846 71.5342 21.9715 71.5342 22.6096V22.7916C71.5342 23.434 71.8754 23.7166 72.635 23.7166H73.8547V31.9689C73.8547 35.1486 75.2527 36.6946 78.1237 36.6946C80.1162 36.6946 81.3073 35.7182 81.3073 34.7675C81.2985 34.003 80.7194 33.6604 80.5015 33.6604Z" fill="white"/>
<path d="M89.6645 27.9516L89.6205 27.9409C86.831 27.3564 85.6091 26.9517 85.6091 25.5449C85.6091 24.1381 86.9807 23.2752 89.1868 23.2752C91.0119 23.2752 92.5112 24.0011 93.4051 25.3222C93.4433 25.3745 93.5067 25.4037 93.5724 25.3993C93.8741 25.3993 94.7877 24.9711 94.7877 24.2195C94.7877 23.0097 92.8415 21.3331 89.1868 21.3331C85.7236 21.3331 83.3965 23.136 83.3965 25.8168C83.3965 28.8531 86.4567 29.4955 88.6804 29.9665C91.5425 30.5511 92.9075 30.9044 92.9075 32.4803C92.9075 33.9042 91.5359 34.7521 89.2396 34.7521C87.1172 34.7521 85.411 33.9706 84.3013 32.4889C84.2644 32.4554 84.2153 32.4377 84.1648 32.4396C83.9151 32.4726 83.6788 32.5694 83.4801 32.7201C83.1644 32.9287 82.9729 33.2739 82.9671 33.6451C82.9671 34.7457 85.0477 36.7114 89.1912 36.7114C92.8195 36.7114 95.1642 34.9384 95.1642 32.1977C95.1598 29.1293 92.1127 28.4762 89.6645 27.9516Z" fill="white"/>
<path d="M105.935 19.3503C103.535 19.3503 101.373 20.2068 99.8427 21.7528C98.3126 23.2987 97.4671 25.5042 97.4671 27.9452C97.4671 30.4226 98.2751 32.551 99.8075 34.0991C101.34 35.6472 103.438 36.4544 105.882 36.4544C110.869 36.4544 114.349 32.9299 114.349 27.8895C114.349 25.41 113.541 23.2773 112.011 21.7228C110.481 20.1683 108.378 19.3503 105.935 19.3503ZM105.935 35.0219C104.112 35.0483 102.364 34.3205 101.126 33.0199C99.9088 31.7351 99.2372 29.9065 99.2372 27.8938C99.2372 25.8811 99.8977 24.0632 101.1 22.7806C102.329 21.486 104.068 20.7625 105.88 20.7914C109.761 20.7914 112.577 23.7891 112.577 27.9452C112.577 32.1013 109.843 35.0219 105.935 35.0219Z" fill="white"/>
<path d="M126.696 36.2574H126.881C127.383 36.2574 127.608 36.024 127.608 35.4994V29.0758C127.608 25.682 125.807 23.7335 122.669 23.7335C120.955 23.6948 119.346 24.5326 118.429 25.9411C118.42 25.9536 118.404 25.9595 118.389 25.956C118.373 25.9528 118.361 25.9381 118.363 25.9218V25.5128C118.363 24.0975 117.753 23.9347 117.293 23.9347C117.1 23.9257 116.909 23.9775 116.749 24.0825V35.4994C116.749 36.024 116.969 36.2574 117.478 36.2574H117.661C118.165 36.2574 118.389 36.024 118.389 35.4994V27.8425C118.388 27.8375 118.388 27.8324 118.389 27.8275C119.109 26.2189 120.754 25.1904 122.557 25.2216C124.69 25.2216 125.963 26.699 125.963 29.1743V35.4994C125.97 36.024 126.194 36.2574 126.696 36.2574Z" fill="white"/>
<path d="M146.418 20.6222C146.418 19.9949 145.903 19.5516 145.163 19.5516H144.796C143.882 19.5516 143.66 19.9799 143.277 20.8364L138.774 30.4911C138.768 30.5033 138.755 30.5109 138.741 30.5104C138.727 30.5109 138.714 30.5033 138.708 30.4911L134.232 20.8406C133.849 19.9842 133.625 19.5559 132.711 19.5559H132.299C131.562 19.5559 131.044 19.9949 131.044 20.6265V35.5037C131.044 36.0347 131.247 36.2617 131.72 36.2617H131.982C132.475 36.2617 132.685 36.0347 132.685 35.5037V21.5173C132.684 21.5006 132.696 21.4861 132.713 21.483C132.729 21.4803 132.745 21.4881 132.753 21.5023L137.202 30.9515C137.524 31.6538 137.863 32.0328 138.724 32.0328C139.585 32.0328 139.939 31.6195 140.243 30.9515L144.719 21.5023C144.725 21.4901 144.738 21.4825 144.752 21.483C144.768 21.4869 144.78 21.5009 144.78 21.5173V35.4994C144.78 36.0176 145.001 36.2574 145.48 36.2574H145.701C146.203 36.2574 146.427 36.024 146.427 35.4994L146.418 20.6222Z" fill="white"/>
<path d="M161 29.8399C161 28.0263 160.45 26.4911 159.41 25.399C158.371 24.307 156.912 23.7289 155.19 23.7289C153.497 23.7075 151.871 24.3677 150.696 25.5532C149.514 26.8028 148.873 28.4483 148.909 30.1461C148.909 33.8654 151.551 36.4627 155.348 36.4627C158.763 36.4627 160.604 34.5613 160.604 33.7841C160.603 33.4634 160.425 33.1679 160.137 33.0111C160 32.915 159.835 32.8626 159.666 32.8612C159.019 33.8761 157.935 35.0474 155.348 35.0474C152.656 35.0474 150.681 33.2016 150.547 30.5508C150.544 30.5424 150.544 30.5335 150.547 30.5251C150.555 30.522 150.565 30.522 150.573 30.5251H160.313C160.85 30.5251 160.989 30.4159 160.989 29.9984L161 29.8399ZM159.239 29.1483C159.23 29.1514 159.221 29.1514 159.212 29.1483H150.626C150.616 29.148 150.606 29.1433 150.599 29.1355C150.597 29.1264 150.597 29.1167 150.599 29.1076C150.978 26.7159 152.823 25.1078 155.19 25.1078C157.557 25.1078 159.093 26.641 159.256 29.1098C159.259 29.1236 159.255 29.1379 159.245 29.1483H159.239Z" fill="white"/>
</svg>
