<svg width="148" height="72" viewBox="0 0 148 72" fill="none" xmlns="http://www.w3.org/2000/svg">
<g clip-path="url(#clip0_229_988)">
<path d="M104.316 20.3832L86.3942 2.43114L86.3814 2.41834C86.3557 2.39275 86.3429 2.36716 86.3173 2.34157C84.8313 0.857295 82.8585 0 80.7575 0H10.2356C7.50697 0 4.93205 1.06202 2.99766 2.99414C1.06327 4.92625 0 7.49813 0 10.2236V44.9632C0 47.0617 0.819874 49.045 2.30589 50.5292C3.79192 52.0135 5.76474 52.8324 7.87847 52.8324H80.6294C82.8072 52.8324 84.8569 51.9879 86.3942 50.4525C86.3942 50.4525 101.664 35.2515 104.316 32.6028C108.467 28.4315 107.378 23.4285 104.316 20.3832ZM27.0046 42.4425C24.814 44.0419 21.9188 44.8353 18.3062 44.8353C14.5656 44.8353 11.6063 43.8884 9.44136 41.9947C7.26357 40.1009 6.22592 37.9897 6.3284 35.6609L6.37964 35.5074H14.1428C14.1813 36.8125 14.5656 37.7466 15.3214 38.3224C16.0772 38.8982 17.1405 39.1797 18.5368 39.1797C19.6898 39.1797 20.5609 38.9621 21.1502 38.5143C21.7395 38.0665 22.0341 37.4267 22.0341 36.595C22.0341 35.9168 21.6498 35.3154 20.8812 34.778C20.1125 34.2534 18.7162 33.7672 16.6793 33.3449C13.4767 32.718 11.0683 31.7583 9.44136 30.4404C7.81442 29.1352 7.00736 27.3183 7.00736 25.0279C7.00736 22.6096 8.01939 20.5623 10.0563 18.8733C12.0803 17.1843 14.8346 16.3526 18.3062 16.3526C21.9572 16.3526 24.878 17.1715 27.043 18.7965C29.208 20.4343 30.2456 22.5328 30.1432 25.1303L30.0919 25.2838H21.7651C21.7651 24.1962 21.4961 23.3773 20.958 22.8271C20.42 22.2641 19.5232 21.9954 18.2934 21.9954C17.3967 21.9954 16.6409 22.2385 16.0388 22.7375C15.4239 23.2237 15.1292 23.8507 15.1292 24.6184C15.1292 25.3478 15.4751 25.962 16.1797 26.4738C16.8843 26.9856 18.2934 27.4334 20.4328 27.8429C23.802 28.5083 26.2872 29.4935 27.9013 30.7986C29.5026 32.1038 30.3097 33.9591 30.3097 36.3647C30.2969 38.8086 29.1952 40.8431 27.0046 42.4425ZM50.2685 44.3106L43.3636 33.4089H41.8136V44.3106H33.2305V4.74711H41.8136V26.9344H43.0306L48.8209 16.8644H58.6466L50.1916 29.2376L60.0429 44.2978H50.2685V44.3106ZM85.0491 44.3106H78.1442L77.1065 40.2033C76.2995 41.6876 75.2362 42.8392 73.9424 43.6325C72.6485 44.4386 71.1497 44.8353 69.4587 44.8353C66.6147 44.8353 64.3857 43.8372 62.7716 41.8411C61.1574 39.845 60.3504 36.7613 60.3504 32.59V16.8644H68.9078V32.6412C68.9078 34.7908 69.1768 36.2623 69.7277 37.0556C70.2785 37.8489 71.124 38.2456 72.277 38.2456C73.1865 38.2456 73.9936 38.1176 74.6854 37.8617C75.3771 37.6058 75.9664 37.222 76.466 36.7229V16.8644H85.0491V44.3106ZM101.037 29.5063C99.3712 31.1697 96.6682 31.1697 94.99 29.5063C93.3247 27.8429 93.3247 25.1431 94.99 23.4669C96.6554 21.8034 99.3584 21.8034 101.037 23.4669C102.702 25.1303 102.702 27.8301 101.037 29.5063Z" fill="white"/>
<path d="M118.395 44.3107H109.786V16.8644H118.395V44.3107Z" fill="#59CAEA"/>
<path d="M121.418 30.338C121.418 26.2179 122.584 22.8527 124.915 20.2552C127.247 17.6577 130.514 16.3654 134.69 16.3654C138.892 16.3654 142.146 17.6705 144.49 20.2552C146.821 22.8527 148 26.2051 148 30.338V30.8754C148 35.0212 146.834 38.3864 144.49 40.971C142.158 43.5557 138.905 44.8481 134.741 44.8481C130.526 44.8481 127.247 43.5557 124.915 40.971C122.584 38.3864 121.418 35.0212 121.418 30.8754V30.338ZM130.001 30.8626C130.001 33.1658 130.36 34.97 131.077 36.2751C131.795 37.5802 133.024 38.2328 134.741 38.2328C136.419 38.2328 137.611 37.5802 138.341 36.2495C139.071 34.9316 139.43 33.1274 139.43 30.8498V30.3124C139.43 28.086 139.071 26.2947 138.341 24.9511C137.611 23.6076 136.394 22.9295 134.69 22.9295C132.999 22.9295 131.795 23.6076 131.077 24.9511C130.36 26.3075 130.001 28.086 130.001 30.2996V30.8626V30.8626Z" fill="#59CAEA"/>
<path d="M118.856 9.51982C118.856 11.8614 116.717 13.7679 114.091 13.7679C111.464 13.7679 109.325 11.8742 109.325 9.51982C109.325 7.17825 111.464 5.27173 114.091 5.27173C116.717 5.27173 118.856 7.16546 118.856 9.51982Z" fill="#59CAEA"/>
<path d="M2.34433 57.7331H0V55.9801H2.34433V57.7331ZM2.34433 68.494H0V59.8059H2.34433V68.494Z" fill="#59CAEA"/>
<path d="M6.17467 59.8187L6.28996 61.1111C6.58461 60.6504 6.9433 60.2922 7.37886 60.0363C7.81442 59.7804 8.31403 59.6524 8.86488 59.6524C9.80005 59.6524 10.5302 59.9211 11.0427 60.4713C11.5551 61.0215 11.8113 61.866 11.8113 63.0176V68.4941H10.2228V63.0432C10.2228 62.2755 10.0691 61.7381 9.77443 61.4182C9.46697 61.0983 9.0058 60.9319 8.39089 60.9319C7.90409 60.9319 7.49415 61.0343 7.14827 61.2262C6.8152 61.4182 6.53336 61.6997 6.34121 62.0452V68.4941H4.7527V59.806H6.17467V59.8187Z" fill="white"/>
<path d="M17.243 65.935L17.3839 66.5491H17.4351L17.5889 65.935L19.5873 59.8059H21.2014L17.9988 68.494H16.7946L13.5535 59.8059H15.1805L17.243 65.935Z" fill="white"/>
<path d="M26.3384 68.6604C25.0958 68.6604 24.1094 68.2637 23.4176 67.4704C22.7131 66.6771 22.3672 65.6279 22.3672 64.3227V63.9773C22.3672 62.7361 22.7259 61.6997 23.4433 60.8808C24.1606 60.0619 25.0446 59.6524 26.0822 59.6524C27.248 59.6524 28.1191 60.0107 28.6956 60.74C29.272 61.4566 29.5667 62.429 29.5667 63.619V64.4507H24.0069L23.9813 64.4891C23.9813 65.3592 24.1735 66.0757 24.5578 66.6131C24.9421 67.1505 25.5314 67.432 26.3256 67.432C26.8637 67.432 27.3377 67.3553 27.7348 67.2017C28.1447 67.0482 28.4906 66.8434 28.7724 66.5747L29.3873 67.5984C29.0799 67.8927 28.67 68.1486 28.1575 68.3533C27.6707 68.558 27.0558 68.6604 26.3384 68.6604ZM26.095 60.8936C25.5442 60.8936 25.083 61.1111 24.7243 61.5333C24.3656 61.9556 24.1478 62.5058 24.0582 63.1712L24.071 63.2095H27.991V63.0816C27.991 62.4546 27.8373 61.93 27.5298 61.5205C27.2224 61.0983 26.7356 60.8936 26.095 60.8936Z" fill="white"/>
<path d="M32.9999 59.8187L33.1152 61.1111C33.4099 60.6504 33.7685 60.2922 34.2041 60.0363C34.6397 59.7804 35.1393 59.6524 35.6901 59.6524C36.6253 59.6524 37.3555 59.9211 37.8679 60.4713C38.3803 61.0215 38.6365 61.866 38.6365 63.0176V68.4941H37.0609V63.0432C37.0609 62.2755 36.9071 61.7381 36.6125 61.4182C36.305 61.0983 35.8439 60.9319 35.2289 60.9319C34.7421 60.9319 34.3322 61.0343 33.9863 61.2262C33.6533 61.4182 33.3714 61.6997 33.1793 62.0452V68.4941H31.5908V59.806H32.9999V59.8187Z" fill="white"/>
<path d="M43.3764 57.7203V59.8187H45.029V60.9959H43.3764V66.2676C43.3764 66.6771 43.4661 66.9586 43.6326 67.1249C43.7992 67.2913 44.0298 67.368 44.2988 67.368C44.3885 67.368 44.4909 67.3552 44.6062 67.3297C44.7215 67.3041 44.8112 67.2785 44.8881 67.2529L45.1059 68.3405C44.9906 68.4429 44.8112 68.5196 44.5806 68.5836C44.35 68.6476 44.1194 68.6732 43.9017 68.6732C43.2611 68.6732 42.7487 68.4813 42.3644 68.0974C41.9801 67.7135 41.7879 67.0993 41.7879 66.2676V60.9959H40.4044V59.8187H41.7879V57.7203H43.3764V57.7203Z" fill="white"/>
<path d="M46.5791 64.0796C46.5791 62.8001 46.925 61.7381 47.6167 60.9064C48.3085 60.0747 49.2565 59.6524 50.4479 59.6524C51.652 59.6524 52.6 60.0619 53.3046 60.8936C53.9964 61.7253 54.3551 62.7873 54.3551 64.0668V64.246C54.3551 65.5383 54.0092 66.6003 53.3174 67.4192C52.6256 68.2381 51.6777 68.6604 50.4735 68.6604C49.2693 68.6604 48.3213 68.2509 47.6295 67.4192C46.925 66.5875 46.5791 65.5383 46.5791 64.246V64.0796ZM48.1548 64.246C48.1548 65.1672 48.3469 65.9222 48.7312 66.5236C49.1156 67.1249 49.692 67.4192 50.4607 67.4192C51.2165 67.4192 51.793 67.1249 52.1773 66.5236C52.5616 65.9222 52.7666 65.1672 52.7666 64.246V64.0668C52.7666 63.1584 52.5744 62.4034 52.1773 61.7892C51.7801 61.1879 51.2037 60.8808 50.4479 60.8808C49.692 60.8808 49.1284 61.1879 48.7312 61.7892C48.3469 62.3906 48.1548 63.1456 48.1548 64.0668V64.246Z" fill="white"/>
<path d="M60.645 61.2134L59.8252 61.1622C59.4152 61.1622 59.0565 61.2646 58.7747 61.4565C58.4929 61.6485 58.2623 61.93 58.1085 62.2882V68.494H56.52V59.8059H57.9292L58.0829 61.0727C58.3263 60.6248 58.6338 60.2666 58.9925 60.0234C59.3512 59.7675 59.7739 59.6396 60.2479 59.6396C60.3632 59.6396 60.4785 59.6524 60.581 59.6652C60.6835 59.678 60.7731 59.7036 60.85 59.7292L60.645 61.2134Z" fill="white"/>
<path d="M65.3209 65.2824L65.6027 66.37H65.6539L67.7933 59.8187H69.5483L65.8973 69.8376C65.6796 70.4261 65.3593 70.9252 64.9494 71.3602C64.5394 71.7953 63.9886 72.0128 63.284 72.0128C63.1559 72.0128 62.9894 72 62.7972 71.9744C62.605 71.9488 62.4513 71.9232 62.336 71.8848L62.5026 70.6437C62.4641 70.6437 62.5666 70.6437 62.7844 70.6565C63.0022 70.6693 63.1431 70.6821 63.2071 70.6821C63.5402 70.6821 63.822 70.5285 64.0398 70.2342C64.2576 69.9399 64.4369 69.6072 64.5779 69.2362L64.9622 68.3277L61.7339 59.8187H63.5018L65.3209 65.2824Z" fill="white"/>
<path d="M74.8775 64.0796C74.8775 62.7873 75.2362 61.7253 75.9664 60.8936C76.6838 60.0619 77.6958 59.6524 78.9769 59.6524C80.2579 59.6524 81.27 60.0619 82.0002 60.8936C82.7304 61.7125 83.0891 62.7745 83.0891 64.0796V64.246C83.0891 65.5511 82.7304 66.6131 82.0002 67.432C81.27 68.2509 80.2708 68.6604 78.9897 68.6604C77.6958 68.6604 76.6966 68.2509 75.9664 67.432C75.249 66.6131 74.8775 65.5511 74.8775 64.246V64.0796ZM77.2218 64.246C77.2218 65.0393 77.3628 65.6791 77.6446 66.1525C77.9264 66.6259 78.3748 66.869 78.9897 66.869C79.5918 66.869 80.0402 66.6259 80.322 66.1525C80.6038 65.6663 80.7447 65.0393 80.7447 64.246V64.0796C80.7447 63.3119 80.6038 62.6849 80.322 62.1987C80.0402 61.7125 79.5918 61.4694 78.9769 61.4694C78.3748 61.4694 77.9264 61.7125 77.6446 62.1987C77.3628 62.6849 77.2218 63.3119 77.2218 64.0796V64.246Z" fill="#59CAEA"/>
<path d="M92.4151 64.4891C92.4151 65.743 92.1205 66.7539 91.5184 67.5216C90.9163 68.2893 90.0836 68.6732 89.0332 68.6732C88.4951 68.6732 88.0211 68.5836 87.624 68.4045C87.2141 68.2254 86.8682 67.9567 86.5863 67.5984V71.8465H84.9978V59.8187H86.2148L86.4582 60.9447C86.7401 60.5225 87.0988 60.2026 87.5215 59.9851C87.9443 59.7676 88.4439 59.6524 88.9947 59.6524C90.0708 59.6524 90.9035 60.0747 91.5056 60.9319C92.1077 61.7892 92.4023 62.9152 92.4023 64.3099V64.4891H92.4151ZM90.8394 64.3227C90.8394 63.3375 90.6473 62.5314 90.263 61.8916C89.8786 61.2518 89.3022 60.9447 88.5464 60.9447C88.0852 60.9447 87.7009 61.0471 87.3806 61.2518C87.0603 61.4566 86.8041 61.7381 86.5991 62.0963V66.2932C86.7913 66.6515 87.0603 66.933 87.3806 67.1377C87.7009 67.3425 88.098 67.432 88.5592 67.432C89.315 67.432 89.8786 67.1633 90.263 66.6131C90.6473 66.0629 90.8394 65.3592 90.8394 64.4891V64.3227Z" fill="white"/>
<path d="M96.7963 57.7203V59.8187H98.4489V60.9959H96.7963V66.2676C96.7963 66.6771 96.886 66.9586 97.0525 67.1249C97.2191 67.2913 97.4497 67.368 97.7187 67.368C97.8084 67.368 97.9108 67.3552 98.0261 67.3297C98.1414 67.3041 98.2311 67.2785 98.308 67.2529L98.5258 68.3405C98.4105 68.4429 98.2311 68.5196 98.0005 68.5836C97.7699 68.6476 97.5393 68.6732 97.3216 68.6732C96.681 68.6732 96.1686 68.4813 95.7843 68.0974C95.4 67.7135 95.2078 67.0993 95.2078 66.2676V60.9959H93.8243V59.8187H95.2078V57.7203H96.7963V57.7203Z" fill="white"/>
<path d="M102.074 57.5923H100.499V55.9801H102.074V57.5923ZM102.074 68.494H100.499V59.8059H102.074V68.494Z" fill="white"/>
<path d="M106.161 59.8187L106.276 60.9575C106.558 60.5481 106.917 60.2282 107.352 59.9979C107.788 59.7675 108.3 59.6524 108.877 59.6524C109.453 59.6524 109.953 59.7803 110.363 60.049C110.773 60.3177 111.093 60.7144 111.298 61.2518C111.58 60.7528 111.938 60.3561 112.387 60.0746C112.835 59.7931 113.36 59.6396 113.962 59.6396C114.846 59.6396 115.551 59.9467 116.063 60.5481C116.576 61.1494 116.832 62.0707 116.832 63.2863V68.4812H115.243V63.2735C115.243 62.4162 115.103 61.8148 114.808 61.4565C114.513 61.0983 114.078 60.9191 113.488 60.9191C112.95 60.9191 112.515 61.1111 112.169 61.4821C111.836 61.8532 111.644 62.3266 111.58 62.9024V62.9664V68.4812H109.991V63.2735C109.991 62.4546 109.837 61.866 109.543 61.4821C109.235 61.0983 108.8 60.9191 108.236 60.9191C107.749 60.9191 107.352 61.0215 107.045 61.2134C106.737 61.4054 106.494 61.6869 106.327 62.0451V68.4684H104.739V59.7803H106.161V59.8187Z" fill="white"/>
<path d="M121.072 57.5923H119.497V55.9801H121.072V57.5923ZM121.072 68.494H119.497V59.8059H121.072V68.494Z" fill="white"/>
<path d="M125.223 67.2657H130.245V68.5068H123.34V67.3936L128.041 61.0727H123.391V59.8187H129.976V60.8935L125.223 67.2657Z" fill="white"/>
<path d="M135.715 68.6604C134.472 68.6604 133.486 68.2637 132.794 67.4704C132.089 66.6771 131.743 65.6279 131.743 64.3227V63.9773C131.743 62.7361 132.102 61.6997 132.82 60.8808C133.537 60.0619 134.421 59.6524 135.458 59.6524C136.624 59.6524 137.495 60.0107 138.072 60.74C138.648 61.4566 138.943 62.429 138.943 63.619V64.4507H133.383L133.358 64.4891C133.358 65.3592 133.55 66.0757 133.934 66.6131C134.318 67.1505 134.908 67.432 135.702 67.432C136.24 67.432 136.714 67.3553 137.111 67.2017C137.521 67.0482 137.867 66.8434 138.149 66.5747L138.764 67.5984C138.456 67.8927 138.046 68.1486 137.534 68.3533C137.047 68.558 136.432 68.6604 135.715 68.6604ZM135.471 60.8936C134.92 60.8936 134.459 61.1111 134.101 61.5333C133.742 61.9556 133.524 62.5058 133.434 63.1712L133.447 63.2095H137.367V63.0816C137.367 62.4546 137.214 61.93 136.906 61.5205C136.599 61.0983 136.112 60.8936 135.471 60.8936Z" fill="white"/>
<path d="M140.596 64.3227C140.596 62.928 140.89 61.802 141.492 60.9447C142.094 60.0874 142.927 59.6652 144.003 59.6652C144.516 59.6652 144.964 59.7548 145.361 59.9467C145.758 60.1386 146.091 60.4073 146.373 60.7656V55.9929H147.962V68.5196H146.745L146.501 67.4192C146.219 67.8415 145.861 68.1486 145.451 68.3661C145.028 68.5836 144.554 68.686 143.99 68.686C142.927 68.686 142.094 68.3021 141.505 67.5344C140.903 66.7667 140.608 65.7558 140.608 64.5019V64.3227H140.596ZM142.184 64.4891C142.184 65.372 142.363 66.0757 142.722 66.6003C143.081 67.1249 143.644 67.3936 144.387 67.3936C144.861 67.3936 145.259 67.2913 145.579 67.0738C145.899 66.8562 146.168 66.5619 146.36 66.1781V62.1219C146.155 61.7636 145.899 61.4821 145.566 61.2646C145.246 61.0471 144.849 60.9447 144.4 60.9447C143.644 60.9447 143.081 61.2518 142.722 61.8788C142.363 62.5058 142.184 63.3119 142.184 64.3227V64.4891Z" fill="white"/>
</g>
<defs>
<clipPath id="clip0_229_988">
<rect width="148" height="72" fill="white"/>
</clipPath>
</defs>
</svg>
